
<svg width="1021" height="755" viewBox="0 0 1021 755" fill="none" xmlns="http://www.w3.org/2000/svg">
<path d="M771.237 377.634C760.839 377.634 751.412 375.208 742.956 370.356C734.638 365.504 727.983 358.919 722.993 350.601C718.14 342.283 715.714 332.995 715.714 322.736C715.714 312.616 718.071 303.466 722.785 295.287C727.498 286.969 733.875 280.384 741.916 275.532C749.957 270.541 758.898 268.045 768.741 268.045C778.584 268.045 787.318 270.541 794.943 275.532C802.568 280.384 808.598 287.038 813.034 295.495C817.609 303.813 819.897 313.24 819.897 323.776V329.598H736.509C737.618 335.421 739.767 340.62 742.956 345.194C746.283 349.769 750.442 353.374 755.433 356.008C760.562 358.642 766.107 359.959 772.068 359.959C777.198 359.959 782.119 359.196 786.833 357.671C791.685 356.008 795.705 353.651 798.894 350.601L812.203 363.702C805.964 368.415 799.518 371.95 792.863 374.307C786.348 376.525 779.139 377.634 771.237 377.634ZM736.717 314.002H799.31C798.478 308.457 796.537 303.605 793.487 299.446C790.576 295.148 786.902 291.821 782.466 289.464C778.168 286.969 773.455 285.721 768.325 285.721C763.057 285.721 758.205 286.899 753.769 289.256C749.333 291.613 745.59 294.94 742.54 299.238C739.628 303.397 737.688 308.318 736.717 314.002ZM753.769 250.37L772.9 225H798.062L771.237 250.37H753.769Z" fill="#1F3654"/>
<path d="M602.511 375.763V269.917H623.306V280.73C631.485 272.135 642.09 267.838 655.122 267.838C663.301 267.838 670.441 269.571 676.54 273.036C682.779 276.502 687.631 281.354 691.097 287.593C694.701 293.831 696.503 301.04 696.503 309.219V375.763H675.709V312.755C675.709 304.437 673.352 297.921 668.638 293.207C664.063 288.355 657.617 285.929 649.299 285.929C643.754 285.929 638.763 287.108 634.327 289.464C629.891 291.821 626.217 295.218 623.306 299.654V375.763H602.511Z" fill="#1F3654"/>
<path d="M557.225 375.763V269.917H578.02V375.763H557.225ZM567.622 252.865C564.157 252.865 561.176 251.617 558.681 249.122C556.185 246.488 554.937 243.438 554.937 239.972C554.937 236.368 556.185 233.387 558.681 231.031C561.176 228.535 564.157 227.287 567.622 227.287C571.227 227.287 574.277 228.535 576.772 231.031C579.267 233.387 580.515 236.368 580.515 239.972C580.515 243.438 579.267 246.488 576.772 249.122C574.277 251.617 571.227 252.865 567.622 252.865Z" fill="#1F3654"/>
<path d="M498.483 377.635C488.362 377.635 479.143 375.209 470.825 370.356C462.507 365.504 455.922 358.919 451.07 350.601C446.357 342.283 444 332.995 444 322.736C444 312.477 446.426 303.258 451.278 295.079C456.13 286.761 462.646 280.176 470.825 275.324C479.143 270.333 488.362 267.838 498.483 267.838C506.523 267.838 514.217 269.363 521.565 272.413C529.051 275.462 535.497 279.76 540.904 285.305L528.011 299.654C523.991 295.218 519.485 291.89 514.495 289.672C509.504 287.454 504.305 286.345 498.898 286.345C492.521 286.345 486.699 287.939 481.431 291.128C476.301 294.316 472.212 298.683 469.162 304.229C466.112 309.774 464.587 315.943 464.587 322.736C464.587 329.529 466.112 335.698 469.162 341.244C472.212 346.789 476.371 351.225 481.639 354.552C486.907 357.741 492.799 359.335 499.314 359.335C504.721 359.335 509.781 358.295 514.495 356.216C519.208 353.998 523.644 350.809 527.803 346.65L540.488 359.959C534.943 365.643 528.497 370.01 521.149 373.06C513.94 376.11 506.385 377.635 498.483 377.635Z" fill="#1F3654"/>
<path d="M822.874 497.093C817.798 497.093 813.901 495.824 811.181 493.286C808.462 490.748 807.102 487.213 807.102 482.68V434.276H792.418V428.838H807.102V411.978L813.085 410.074V428.838H833.752V434.276H813.085V480.641C813.085 484.448 813.901 487.213 815.532 488.935C817.255 490.567 820.065 491.382 823.962 491.382C826.047 491.382 827.815 491.246 829.265 490.974C830.715 490.612 832.211 490.113 833.752 489.479V495.325C832.03 495.96 830.262 496.413 828.449 496.685C826.636 496.957 824.778 497.093 822.874 497.093Z" fill="#1F3654"/>
<path d="M757.57 497.093C751.406 497.093 745.786 495.552 740.71 492.47C735.634 489.388 731.601 485.218 728.609 479.961C725.709 474.703 724.258 468.812 724.258 462.285C724.258 455.759 725.663 449.867 728.473 444.61C731.374 439.352 735.317 435.183 740.302 432.101C745.288 429.019 750.863 427.478 757.026 427.478C762.828 427.478 767.994 429.019 772.527 432.101C777.059 435.183 780.639 439.307 783.268 444.474C785.987 449.55 787.347 455.215 787.347 461.469V463.917H730.377C730.649 469.084 732.009 473.752 734.456 477.921C736.903 482 740.121 485.264 744.11 487.711C748.189 490.158 752.675 491.382 757.57 491.382C761.377 491.382 765.139 490.793 768.855 489.614C772.572 488.345 775.744 486.669 778.373 484.584L781.908 489.343C778.282 491.971 774.43 493.92 770.351 495.189C766.272 496.458 762.012 497.093 757.57 497.093ZM730.649 458.206H780.956C780.503 453.583 779.189 449.414 777.013 445.697C774.838 441.89 772.028 438.854 768.584 436.588C765.139 434.321 761.241 433.188 756.89 433.188C752.268 433.188 748.053 434.276 744.246 436.452C740.529 438.627 737.447 441.618 735 445.425C732.643 449.142 731.193 453.402 730.649 458.206Z" fill="#1F3654"/>
<path d="M670.821 495.733V400.557L676.804 399.061V459.974L714.603 428.838H723.033L683.602 461.198L724.664 495.733H715.554L676.804 462.829V495.733H670.821Z" fill="#1F3654"/>
<path d="M632.492 497.093C626.328 497.093 620.708 495.552 615.632 492.47C610.556 489.388 606.522 485.218 603.531 479.961C600.63 474.703 599.18 468.812 599.18 462.285C599.18 455.759 600.63 449.867 603.531 444.61C606.522 439.352 610.556 435.183 615.632 432.101C620.708 429.019 626.328 427.478 632.492 427.478C637.024 427.478 641.556 428.384 646.088 430.197C650.711 432.01 654.745 434.503 658.189 437.675L654.11 442.57C651.21 439.669 647.856 437.403 644.049 435.772C640.332 434.05 636.48 433.188 632.492 433.188C627.416 433.188 622.793 434.503 618.623 437.131C614.544 439.669 611.281 443.159 608.833 447.601C606.477 451.952 605.298 456.847 605.298 462.285C605.298 467.724 606.477 472.664 608.833 477.106C611.281 481.457 614.544 484.946 618.623 487.575C622.793 490.113 627.416 491.382 632.492 491.382C636.48 491.382 640.332 490.521 644.049 488.799C647.856 487.076 651.21 484.81 654.11 482L658.189 486.895C654.745 490.068 650.711 492.56 646.088 494.373C641.556 496.186 637.024 497.093 632.492 497.093Z" fill="#1F3654"/>
<path d="M553.62 497.093C547.457 497.093 541.837 495.552 536.761 492.47C531.685 489.388 527.651 485.218 524.66 479.961C521.759 474.613 520.309 468.721 520.309 462.285C520.309 455.759 521.759 449.867 524.66 444.61C527.651 439.352 531.685 435.183 536.761 432.101C541.837 429.019 547.457 427.478 553.62 427.478C559.875 427.478 565.495 429.019 570.48 432.101C575.556 435.183 579.545 439.352 582.445 444.61C585.437 449.867 586.932 455.759 586.932 462.285C586.932 468.721 585.437 474.613 582.445 479.961C579.545 485.218 575.556 489.388 570.48 492.47C565.495 495.552 559.875 497.093 553.62 497.093ZM553.62 491.382C558.697 491.382 563.274 490.113 567.353 487.575C571.523 484.946 574.786 481.457 577.143 477.106C579.59 472.664 580.814 467.724 580.814 462.285C580.814 456.847 579.59 451.952 577.143 447.601C574.786 443.159 571.523 439.669 567.353 437.131C563.274 434.503 558.697 433.188 553.62 433.188C548.544 433.188 543.922 434.503 539.752 437.131C535.673 439.669 532.41 443.159 529.962 447.601C527.606 451.952 526.427 456.847 526.427 462.285C526.427 467.724 527.606 472.664 529.962 477.106C532.41 481.457 535.673 484.946 539.752 487.575C543.922 490.113 548.544 491.382 553.62 491.382Z" fill="#1F3654"/>
<path d="M445.76 523.47V428.838H451.742V436.86C457.815 430.605 465.475 427.478 474.721 427.478C480.975 427.387 486.595 428.928 491.58 432.101C496.656 435.183 500.645 439.352 503.545 444.61C506.537 449.867 508.032 455.759 508.032 462.285C508.032 468.721 506.537 474.613 503.545 479.961C500.645 485.218 496.656 489.388 491.58 492.47C486.595 495.552 480.975 497.093 474.721 497.093C470.46 497.093 466.336 496.277 462.348 494.645C458.45 492.923 454.915 490.657 451.742 487.847V523.47H445.76ZM474.721 491.382C479.797 491.382 484.374 490.113 488.453 487.575C492.623 484.947 495.886 481.457 498.243 477.106C500.69 472.664 501.914 467.724 501.914 462.285C501.914 456.847 500.69 451.952 498.243 447.601C495.886 443.159 492.623 439.67 488.453 437.132C484.374 434.503 479.797 433.189 474.721 433.189C469.735 433.189 465.203 434.231 461.124 436.316C457.136 438.31 454.008 440.984 451.742 444.338V480.233C454.099 483.406 457.317 486.08 461.396 488.255C465.475 490.34 469.916 491.382 474.721 491.382Z" fill="#1F3654"/>
<path d="M341.213 349.014L341.418 349.019C343.532 349.126 345.213 350.874 345.213 353.014C345.213 355.154 343.532 356.902 341.418 357.009L341.213 357.014L218.724 357.014C216.515 357.014 214.724 355.223 214.724 353.014C214.724 350.805 216.515 349.014 218.724 349.014L341.213 349.014Z" fill="#1F3654"/>
<path d="M368.798 268.993L369.047 268.933C370.293 268.702 371.536 269.447 371.9 270.69C372.263 271.932 371.619 273.23 370.445 273.707L370.203 273.791L208.419 321.143C207.093 321.531 205.705 320.771 205.317 319.446C204.929 318.12 205.689 316.732 207.014 316.344L368.798 268.993Z" fill="#1F3654"/>
<path d="M184.5 465.646V280.273C184.5 279.183 185.206 278.219 186.245 277.89L354.515 224.616L354.761 224.552C355.998 224.294 357.255 225.007 357.649 226.235L371.792 270.244C371.997 270.884 371.936 271.58 371.623 272.175C371.309 272.769 370.769 273.212 370.125 273.404L243.692 311.069H369.411C370.792 311.069 371.911 312.189 371.911 313.569V466.118C371.911 478.277 365.124 489.419 354.32 494.997L304.248 520.848C289.515 528.454 272.055 528.653 257.152 521.386L202.754 494.856C191.585 489.41 184.5 478.071 184.5 465.646ZM189.5 465.646C189.5 476.16 195.496 485.754 204.946 490.362L259.344 516.892C272.827 523.467 288.625 523.286 301.955 516.404L352.027 490.554C361.169 485.834 366.911 476.406 366.911 466.118V316.069H226.542C225.301 316.069 224.247 315.158 224.068 313.93C223.889 312.701 224.639 311.528 225.828 311.174L366.249 269.341L353.65 230.135L189.5 282.104V465.646Z" fill="#1F3654"/>
<path d="M217.248 294.854C217.248 292.469 215.162 290.16 212.114 290.16C209.067 290.16 206.981 292.469 206.981 294.854C206.981 297.238 209.067 299.547 212.114 299.547V304.547L211.593 304.534C206.411 304.283 202.257 300.309 201.994 295.353L201.981 294.854C201.981 289.5 206.518 285.16 212.114 285.16L212.636 285.173C217.99 285.432 222.248 289.667 222.248 294.854L222.236 295.353C221.964 300.474 217.536 304.547 212.114 304.547V299.547C215.162 299.547 217.248 297.238 217.248 294.854Z" fill="#1F3654"/>
</svg>
