<svg width="351" height="564" viewBox="0 0 351 564" fill="none" xmlns="http://www.w3.org/2000/svg">
<path d="M292.011 232.014L292.393 232.024C296.332 232.223 299.465 235.48 299.465 239.468C299.465 243.456 296.332 246.713 292.393 246.912L292.011 246.921L63.7708 246.921C59.6544 246.921 56.3174 243.584 56.3174 239.468C56.3174 235.351 59.6544 232.014 63.7708 232.014L292.011 232.014Z" fill="#1F3654"/>
<path d="M343.412 82.9069L343.876 82.7956C346.198 82.3649 348.514 83.7544 349.192 86.0691C349.869 88.3839 348.667 90.803 346.48 91.6919L346.029 91.8485L44.5686 180.081C42.0994 180.804 39.5119 179.388 38.7892 176.919C38.0666 174.449 39.4824 171.862 41.9515 171.139L343.412 82.9069Z" fill="#1F3654"/>
<path d="M0 449.34V103.927C7.6751e-05 101.896 1.3156 100.098 3.25177 99.4852L316.797 0.218129L317.255 0.0980304C319.56 -0.383142 321.902 0.945693 322.638 3.23516L348.991 85.239C349.374 86.4314 349.26 87.7286 348.676 88.8365C348.092 89.9444 347.085 90.7698 345.884 91.1274L110.296 161.311H344.554C347.127 161.311 349.212 163.396 349.213 165.969V450.221C349.213 472.877 336.566 493.639 316.435 504.032L223.133 552.201C195.68 566.374 163.146 566.746 135.377 553.204L34.0134 503.77C13.2026 493.621 0.00021616 472.494 0 449.34ZM9.31675 449.34C9.31697 468.932 20.4891 486.809 38.0986 495.396L139.46 544.83C164.585 557.082 194.022 556.745 218.86 543.922L312.162 495.753C329.196 486.958 339.896 469.391 339.896 450.221V170.627H78.339C76.0258 170.627 74.0634 168.929 73.7297 166.64C73.3964 164.352 74.7921 162.166 77.0088 161.505L338.662 83.5558L315.186 10.5011L9.31675 107.339V449.34Z" fill="#1F3654"/>
<path d="M61.0214 131.095C61.0214 126.651 57.1334 122.349 51.4554 122.349C45.7776 122.35 41.8893 126.651 41.8893 131.095C41.8893 135.539 45.7776 139.84 51.4554 139.84V149.157L50.4837 149.133C40.8285 148.665 33.0877 141.26 32.598 132.025L32.5726 131.095C32.5726 121.12 41.0267 113.033 51.4554 113.033L52.4271 113.056C62.4045 113.54 70.3382 121.431 70.3382 131.095L70.3145 132.025C69.8086 141.568 61.5582 149.157 51.4554 149.157V139.84C57.1334 139.84 61.0214 135.539 61.0214 131.095Z" fill="#1F3654"/>
</svg>
